<?xml version="1.0" encoding="UTF-8" standalone="no"?>
<!DOCTYPE svg PUBLIC "-//W3C//DTD SVG 1.1//EN"
 "http://www.w3.org/Graphics/SVG/1.1/DTD/svg11.dtd">
<!-- Generated by graphviz version 2.44.1 (20200629.0846)
 -->
<!-- Title: dependencies Pages: 1 -->
<svg width="2027pt" height="284pt"
 viewBox="0.00 0.00 2027.00 284.00" xmlns="http://www.w3.org/2000/svg" xmlns:xlink="http://www.w3.org/1999/xlink">
<g id="graph0" class="graph" transform="scale(1 1) rotate(0) translate(4 280)">
<title>dependencies</title>
<polygon fill="white" stroke="transparent" points="-4,4 -4,-280 2023,-280 2023,4 -4,4"/>
<text text-anchor="start" x="988.51" y="-42.4" font-family="sans-serif" font-weight="bold" font-size="14.00">Legend</text>
<polygon fill="#ffffb3" stroke="transparent" points="775.5,-10 775.5,-30 795.5,-30 795.5,-10 775.5,-10"/>
<text text-anchor="start" x="799.13" y="-15.4" font-family="sans-serif" font-size="14.00"> &#160;Declarations</text>
<polygon fill="#8dd3c7" stroke="transparent" points="888.5,-10 888.5,-30 908.5,-30 908.5,-10 888.5,-10"/>
<text text-anchor="start" x="912.23" y="-15.4" font-family="sans-serif" font-size="14.00"> &#160;Module</text>
<polygon fill="#80b1d3" stroke="transparent" points="974.5,-10 974.5,-30 994.5,-30 994.5,-10 974.5,-10"/>
<text text-anchor="start" x="998.28" y="-15.4" font-family="sans-serif" font-size="14.00"> &#160;Bootstrap</text>
<polygon fill="#fdb462" stroke="transparent" points="1071.5,-10 1071.5,-30 1091.5,-30 1091.5,-10 1071.5,-10"/>
<text text-anchor="start" x="1095.17" y="-15.4" font-family="sans-serif" font-size="14.00"> &#160;Providers</text>
<polygon fill="#fb8072" stroke="transparent" points="1167.5,-10 1167.5,-30 1187.5,-30 1187.5,-10 1167.5,-10"/>
<text text-anchor="start" x="1191.23" y="-15.4" font-family="sans-serif" font-size="14.00"> &#160;Exports</text>
<g id="clust1" class="cluster">
<title>cluster_AppModule</title>
<polygon fill="none" stroke="black" stroke-dasharray="1,5" points="8,-70 8,-268 2011,-268 2011,-70 8,-70"/>
</g>
<g id="clust2" class="cluster">
<title>cluster_AppModule_declarations</title>
<polygon fill="none" stroke="black" points="424,-78 424,-130 2003,-130 2003,-78 424,-78"/>
</g>
<g id="clust14" class="cluster">
<title>cluster_AppModule_imports</title>
<polygon fill="none" stroke="black" points="16,-78 16,-130 416,-130 416,-78 16,-78"/>
</g>
<g id="clust16" class="cluster">
<title>cluster_AppModule_bootstrap</title>
<polygon fill="none" stroke="black" points="965,-208 965,-260 1089,-260 1089,-208 965,-208"/>
</g>
<!-- AddressComponent -->
<g id="node1" class="node">
<title>AddressComponent</title>
<polygon fill="#ffffb3" stroke="black" points="1994.7,-122 1867.3,-122 1867.3,-86 1994.7,-86 1994.7,-122"/>
<text text-anchor="middle" x="1931" y="-99.8" font-family="Times,serif" font-size="14.00">AddressComponent</text>
</g>
<!-- AppModule -->
<g id="node12" class="node">
<title>AppModule</title>
<polygon fill="#8dd3c7" stroke="black" points="1068.66,-187 1065.66,-191 1044.66,-191 1041.66,-187 985.34,-187 985.34,-151 1068.66,-151 1068.66,-187"/>
<text text-anchor="middle" x="1027" y="-164.8" font-family="Times,serif" font-size="14.00">AppModule</text>
</g>
<!-- AddressComponent&#45;&gt;AppModule -->
<g id="edge1" class="edge">
<title>AddressComponent&#45;&gt;AppModule</title>
<path fill="none" stroke="black" d="M1931,-122.09C1931,-145.13 1931,-182 1931,-182 1931,-182 1078.79,-182 1078.79,-182"/>
<polygon fill="black" stroke="black" points="1078.79,-178.5 1068.79,-182 1078.79,-185.5 1078.79,-178.5"/>
</g>
<!-- AdrredaComponent -->
<g id="node2" class="node">
<title>AdrredaComponent</title>
<polygon fill="#ffffb3" stroke="black" points="1849.69,-122 1722.31,-122 1722.31,-86 1849.69,-86 1849.69,-122"/>
<text text-anchor="middle" x="1786" y="-99.8" font-family="Times,serif" font-size="14.00">AdrredaComponent</text>
</g>
<!-- AdrredaComponent&#45;&gt;AppModule -->
<g id="edge2" class="edge">
<title>AdrredaComponent&#45;&gt;AppModule</title>
<path fill="none" stroke="black" d="M1786,-122.04C1786,-143.66 1786,-177 1786,-177 1786,-177 1078.89,-177 1078.89,-177"/>
<polygon fill="black" stroke="black" points="1078.89,-173.5 1068.89,-177 1078.89,-180.5 1078.89,-173.5"/>
</g>
<!-- AppComponent -->
<g id="node3" class="node">
<title>AppComponent</title>
<polygon fill="#ffffb3" stroke="black" points="1704.94,-122 1599.06,-122 1599.06,-86 1704.94,-86 1704.94,-122"/>
<text text-anchor="middle" x="1652" y="-99.8" font-family="Times,serif" font-size="14.00">AppComponent</text>
</g>
<!-- AppComponent&#45;&gt;AppModule -->
<g id="edge3" class="edge">
<title>AppComponent&#45;&gt;AppModule</title>
<path fill="none" stroke="black" d="M1652,-122.22C1652,-142.37 1652,-172 1652,-172 1652,-172 1078.98,-172 1078.98,-172"/>
<polygon fill="black" stroke="black" points="1078.98,-168.5 1068.98,-172 1078.98,-175.5 1078.98,-168.5"/>
</g>
<!-- FrmsalesComponent -->
<g id="node4" class="node">
<title>FrmsalesComponent</title>
<polygon fill="#ffffb3" stroke="black" points="1580.88,-122 1449.12,-122 1449.12,-86 1580.88,-86 1580.88,-122"/>
<text text-anchor="middle" x="1515" y="-99.8" font-family="Times,serif" font-size="14.00">FrmsalesComponent</text>
</g>
<!-- FrmsalesComponent&#45;&gt;AppModule -->
<g id="edge4" class="edge">
<title>FrmsalesComponent&#45;&gt;AppModule</title>
<path fill="none" stroke="black" d="M1515,-122.22C1515,-140.83 1515,-167 1515,-167 1515,-167 1079.03,-167 1079.03,-167"/>
<polygon fill="black" stroke="black" points="1079.03,-163.5 1069.03,-167 1079.03,-170.5 1079.03,-163.5"/>
</g>
<!-- HomeComponent -->
<g id="node5" class="node">
<title>HomeComponent</title>
<polygon fill="#ffffb3" stroke="black" points="1430.55,-122 1315.45,-122 1315.45,-86 1430.55,-86 1430.55,-122"/>
<text text-anchor="middle" x="1373" y="-99.8" font-family="Times,serif" font-size="14.00">HomeComponent</text>
</g>
<!-- HomeComponent&#45;&gt;AppModule -->
<g id="edge5" class="edge">
<title>HomeComponent&#45;&gt;AppModule</title>
<path fill="none" stroke="black" d="M1373,-122.03C1373,-139.06 1373,-162 1373,-162 1373,-162 1078.74,-162 1078.74,-162"/>
<polygon fill="black" stroke="black" points="1078.74,-158.5 1068.74,-162 1078.74,-165.5 1078.74,-158.5"/>
</g>
<!-- LoginComponent -->
<g id="node6" class="node">
<title>LoginComponent</title>
<polygon fill="#ffffb3" stroke="black" points="1297.28,-122 1182.72,-122 1182.72,-86 1297.28,-86 1297.28,-122"/>
<text text-anchor="middle" x="1240" y="-99.8" font-family="Times,serif" font-size="14.00">LoginComponent</text>
</g>
<!-- LoginComponent&#45;&gt;AppModule -->
<g id="edge6" class="edge">
<title>LoginComponent&#45;&gt;AppModule</title>
<path fill="none" stroke="black" d="M1240,-122.24C1240,-137.57 1240,-157 1240,-157 1240,-157 1078.83,-157 1078.83,-157"/>
<polygon fill="black" stroke="black" points="1078.83,-153.5 1068.83,-157 1078.83,-160.5 1078.83,-153.5"/>
</g>
<!-- McdhelpComponent -->
<g id="node7" class="node">
<title>McdhelpComponent</title>
<polygon fill="#ffffb3" stroke="black" points="1164.6,-122 1033.4,-122 1033.4,-86 1164.6,-86 1164.6,-122"/>
<text text-anchor="middle" x="1099" y="-99.8" font-family="Times,serif" font-size="14.00">McdhelpComponent</text>
</g>
<!-- McdhelpComponent&#45;&gt;AppModule -->
<g id="edge7" class="edge">
<title>McdhelpComponent&#45;&gt;AppModule</title>
<path fill="none" stroke="black" d="M1051.14,-122.11C1051.14,-122.11 1051.14,-140.99 1051.14,-140.99"/>
<polygon fill="black" stroke="black" points="1047.64,-140.99 1051.14,-150.99 1054.64,-140.99 1047.64,-140.99"/>
</g>
<!-- McdtblComponent -->
<g id="node8" class="node">
<title>McdtblComponent</title>
<polygon fill="#ffffb3" stroke="black" points="1015.77,-122 894.23,-122 894.23,-86 1015.77,-86 1015.77,-122"/>
<text text-anchor="middle" x="955" y="-99.8" font-family="Times,serif" font-size="14.00">McdtblComponent</text>
</g>
<!-- McdtblComponent&#45;&gt;AppModule -->
<g id="edge8" class="edge">
<title>McdtblComponent&#45;&gt;AppModule</title>
<path fill="none" stroke="black" d="M1000.53,-122.11C1000.53,-122.11 1000.53,-140.99 1000.53,-140.99"/>
<polygon fill="black" stroke="black" points="997.03,-140.99 1000.53,-150.99 1004.03,-140.99 997.03,-140.99"/>
</g>
<!-- MstgoodsComponent -->
<g id="node9" class="node">
<title>MstgoodsComponent</title>
<polygon fill="#ffffb3" stroke="black" points="876.06,-122 739.94,-122 739.94,-86 876.06,-86 876.06,-122"/>
<text text-anchor="middle" x="808" y="-99.8" font-family="Times,serif" font-size="14.00">MstgoodsComponent</text>
</g>
<!-- MstgoodsComponent&#45;&gt;AppModule -->
<g id="edge9" class="edge">
<title>MstgoodsComponent&#45;&gt;AppModule</title>
<path fill="none" stroke="black" d="M808,-122.24C808,-137.57 808,-157 808,-157 808,-157 975.29,-157 975.29,-157"/>
<polygon fill="black" stroke="black" points="975.29,-160.5 985.29,-157 975.29,-153.5 975.29,-160.5"/>
</g>
<!-- MstmemberComponent -->
<g id="node10" class="node">
<title>MstmemberComponent</title>
<polygon fill="#ffffb3" stroke="black" points="721.48,-122 572.52,-122 572.52,-86 721.48,-86 721.48,-122"/>
<text text-anchor="middle" x="647" y="-99.8" font-family="Times,serif" font-size="14.00">MstmemberComponent</text>
</g>
<!-- MstmemberComponent&#45;&gt;AppModule -->
<g id="edge10" class="edge">
<title>MstmemberComponent&#45;&gt;AppModule</title>
<path fill="none" stroke="black" d="M647,-122.03C647,-139.06 647,-162 647,-162 647,-162 975.25,-162 975.25,-162"/>
<polygon fill="black" stroke="black" points="975.25,-165.5 985.25,-162 975.25,-158.5 975.25,-165.5"/>
</g>
<!-- NavbarComponent -->
<g id="node11" class="node">
<title>NavbarComponent</title>
<polygon fill="#ffffb3" stroke="black" points="554.03,-122 431.97,-122 431.97,-86 554.03,-86 554.03,-122"/>
<text text-anchor="middle" x="493" y="-99.8" font-family="Times,serif" font-size="14.00">NavbarComponent</text>
</g>
<!-- NavbarComponent&#45;&gt;AppModule -->
<g id="edge11" class="edge">
<title>NavbarComponent&#45;&gt;AppModule</title>
<path fill="none" stroke="black" d="M493,-122.22C493,-140.83 493,-167 493,-167 493,-167 975.1,-167 975.1,-167"/>
<polygon fill="black" stroke="black" points="975.1,-170.5 985.1,-167 975.1,-163.5 975.1,-170.5"/>
</g>
<!-- AppComponent  -->
<g id="node16" class="node">
<title>AppComponent </title>
<polygon fill="#80b1d3" stroke="black" points="1081.44,-252 972.56,-252 972.56,-216 1081.44,-216 1081.44,-252"/>
<text text-anchor="middle" x="1027" y="-229.8" font-family="Times,serif" font-size="14.00">AppComponent </text>
</g>
<!-- AppModule&#45;&gt;AppComponent  -->
<g id="edge15" class="edge">
<title>AppModule&#45;&gt;AppComponent </title>
<path fill="none" stroke="black" stroke-dasharray="1,5" d="M1027,-187.11C1027,-187.11 1027,-205.99 1027,-205.99"/>
<polygon fill="black" stroke="black" points="1023.5,-205.99 1027,-215.99 1030.5,-205.99 1023.5,-205.99"/>
</g>
<!-- AppRoutingModule -->
<g id="node13" class="node">
<title>AppRoutingModule</title>
<polygon fill="#8dd3c7" stroke="black" points="408.27,-122 405.27,-126 384.27,-126 381.27,-122 279.73,-122 279.73,-86 408.27,-86 408.27,-122"/>
<text text-anchor="middle" x="344" y="-99.8" font-family="Times,serif" font-size="14.00">AppRoutingModule</text>
</g>
<!-- AppRoutingModule&#45;&gt;AppModule -->
<g id="edge12" class="edge">
<title>AppRoutingModule&#45;&gt;AppModule</title>
<path fill="none" stroke="black" d="M344,-122.22C344,-142.37 344,-172 344,-172 344,-172 975.3,-172 975.3,-172"/>
<polygon fill="black" stroke="black" points="975.3,-175.5 985.3,-172 975.3,-168.5 975.3,-175.5"/>
</g>
<!-- GraphQLModule -->
<g id="node14" class="node">
<title>GraphQLModule</title>
<polygon fill="#8dd3c7" stroke="black" points="261.69,-122 258.69,-126 237.69,-126 234.69,-122 148.31,-122 148.31,-86 261.69,-86 261.69,-122"/>
<text text-anchor="middle" x="205" y="-99.8" font-family="Times,serif" font-size="14.00">GraphQLModule</text>
</g>
<!-- GraphQLModule&#45;&gt;AppModule -->
<g id="edge13" class="edge">
<title>GraphQLModule&#45;&gt;AppModule</title>
<path fill="none" stroke="black" d="M205,-122.04C205,-143.66 205,-177 205,-177 205,-177 975.11,-177 975.11,-177"/>
<polygon fill="black" stroke="black" points="975.11,-180.5 985.11,-177 975.11,-173.5 975.11,-180.5"/>
</g>
<!-- MaterialModule -->
<g id="node15" class="node">
<title>MaterialModule</title>
<polygon fill="#8dd3c7" stroke="black" points="130.47,-122 127.47,-126 106.47,-126 103.47,-122 23.53,-122 23.53,-86 130.47,-86 130.47,-122"/>
<text text-anchor="middle" x="77" y="-99.8" font-family="Times,serif" font-size="14.00">MaterialModule</text>
</g>
<!-- MaterialModule&#45;&gt;AppModule -->
<g id="edge14" class="edge">
<title>MaterialModule&#45;&gt;AppModule</title>
<path fill="none" stroke="black" d="M77,-122.09C77,-145.13 77,-182 77,-182 77,-182 975.26,-182 975.26,-182"/>
<polygon fill="black" stroke="black" points="975.26,-185.5 985.26,-182 975.26,-178.5 975.26,-185.5"/>
</g>
</g>
</svg>
